<svg width="1349" height="211" viewBox="0 0 1349 211" fill="none" xmlns="http://www.w3.org/2000/svg">
<path fill-rule="evenodd" clip-rule="evenodd" d="M1992 79.125L1894.92 101.104C1797.83 123.083 1603.67 167.042 1409.5 184.625C1215.33 202.208 1021.17 193.417 827 171.438C632.833 149.458 438.667 114.292 244.5 83.5208C50.3333 52.75 -143.833 26.375 -240.917 13.1875L-338 0V211H-240.917C-143.833 211 50.3333 211 244.5 211C438.667 211 632.833 211 827 211C1021.17 211 1215.33 211 1409.5 211C1603.67 211 1797.83 211 1894.92 211H1992V79.125Z" fill="white"/>
</svg>
