<svg width="1349" height="203" viewBox="0 0 1349 203" fill="none" xmlns="http://www.w3.org/2000/svg">
<path fill-rule="evenodd" clip-rule="evenodd" d="M-321 126.875L-243.458 105.729C-165.917 84.5835 -10.8333 42.2918 144.25 25.3751C299.333 8.45845 454.417 16.9168 609.5 38.0626C764.583 59.2085 919.667 93.0418 1074.75 122.646C1229.83 152.25 1384.92 177.625 1462.46 190.313L1540 203V0.00012207H1462.46C1384.92 0.00012207 1229.83 0.00012207 1074.75 0.00012207C919.667 0.00012207 764.583 0.00012207 609.5 0.00012207C454.417 0.00012207 299.333 0.00012207 144.25 0.00012207C-10.8333 0.00012207 -165.917 0.00012207 -243.458 0.00012207H-321V126.875Z" fill="#FFF7E1"/>
</svg>
