<svg width="12" height="12" viewBox="0 0 12 12" fill="none" xmlns="http://www.w3.org/2000/svg">
<path d="M0.523614 10.1433C-0.628923 8.11131 0.15535 4.92432 2.53964 2.53985C5.24725 -0.166839 8.99111 -0.812127 10.9026 1.0986C10.9048 1.1011 10.9067 1.10394 10.9098 1.10648C10.5272 2.21925 9.30898 4.58694 5.65726 5.86702C2.31211 7.04027 1.02171 8.90558 0.523614 10.1433ZM11.4402 1.7942C11.1505 2.46996 10.6462 3.35308 9.77734 4.22169C8.90398 5.09524 7.66269 5.95318 5.90445 6.5698C2.33596 7.82088 1.33892 9.869 1.06073 10.8615C1.07388 10.8747 1.08518 10.8885 1.09795 10.9014C3.00925 12.8122 6.75326 12.1669 9.46068 9.45977C11.8698 7.05112 12.6446 3.82281 11.4402 1.7942Z" fill="#505050"/>
</svg>
