<svg width="1349" height="822" viewBox="0 0 1349 822" fill="none" xmlns="http://www.w3.org/2000/svg">
<rect y="367" width="1349" height="260" fill="#F9B300"/>
<ellipse cx="674" cy="308.5" rx="809" ry="308.5" fill="#F9B300"/>
<path fill-rule="evenodd" clip-rule="evenodd" d="M-337 745.5L-259.458 724.25C-181.917 703 -26.8333 660.5 128.25 643.5C283.333 626.5 438.417 635 593.5 656.25C748.583 677.5 903.667 711.5 1058.75 741.25C1213.83 771 1368.92 796.5 1446.46 809.25L1524 822V618H1446.46C1368.92 618 1213.83 618 1058.75 618C903.667 618 748.583 618 593.5 618C438.417 618 283.333 618 128.25 618C-26.8333 618 -181.917 618 -259.458 618H-337V745.5Z" fill="#F9B300"/>
</svg>
