<svg width="375" height="361" viewBox="0 0 375 361" fill="none" xmlns="http://www.w3.org/2000/svg">
<rect y="139" width="381" height="161" fill="#F9B300"/>
<path fill-rule="evenodd" clip-rule="evenodd" d="M-97 338.125L-77.3333 331.771C-57.6667 325.417 -18.3333 312.708 21 307.625C60.3333 302.542 99.6667 305.083 139 311.438C178.333 317.792 217.667 327.958 257 336.854C296.333 345.75 335.667 353.375 355.333 357.188L375 361V300H355.333C335.667 300 296.333 300 257 300C217.667 300 178.333 300 139 300C99.6667 300 60.3333 300 21 300C-18.3333 300 -57.6667 300 -77.3333 300H-97V338.125Z" fill="#F9B300"/>
<ellipse cx="191.879" cy="92.9293" rx="272" ry="92.9293" fill="#F9B300"/>
</svg>
