<svg width="1349" height="653" viewBox="0 0 1349 653" fill="none" xmlns="http://www.w3.org/2000/svg">
<rect y="203" width="1353" height="450" fill="#FFF7E1"/>
<path fill-rule="evenodd" clip-rule="evenodd" d="M-321 76.125L-243.458 97.2708C-165.917 118.417 -10.8333 160.708 144.25 177.625C299.333 194.542 454.417 186.083 609.5 164.938C764.583 143.792 919.667 109.958 1074.75 80.3542C1229.83 50.75 1384.92 25.375 1462.46 12.6875L1540 0V203H1462.46C1384.92 203 1229.83 203 1074.75 203C919.667 203 764.583 203 609.5 203C454.417 203 299.333 203 144.25 203C-10.8333 203 -165.917 203 -243.458 203H-321V76.125Z" fill="#FFF7E1"/>
</svg>
